<svg version="1.2" xmlns="http://www.w3.org/2000/svg" viewBox="0 0 33 33" width="33" height="33">
	<style>
		.s0 { fill: #111918 } 
	</style>
	<g id="SVGRepo_bgCarrier">
	</g>
	<g id="SVGRepo_tracerCarrier">
	</g>
	<g id="SVGRepo_iconCarrier">
		<path class="s0" d="m28.88 6.19v22.68h-17.54v-2.06l2.37-2.36c0.65-0.65 0.19-1.76-0.73-1.76h-5.76c-1.14 0-2.06-0.93-2.06-2.07v-4.12h-1.04v-7.22c0-1.14 0.93-2.06 2.07-2.06h8.25v-1.03c0-1.14 0.92-2.07 2.06-2.07h10.31c1.14 0 2.06 0.93 2.06 2.07zm-2.06 0h-10.31v3.09h-10.31v5.16h17.53v2.06h-4.13v2.06h-2.06v-2.06h-2.06v2.06h-2.06v-2.06h-2.07v2.06h-2.06v-2.06h-2.06v4.13l5.76-0.01c1.26 0 2.38 0.75 2.86 1.91 0.48 1.17 0.22 2.49-0.67 3.38l-0.91 0.9h12.55zm-19.59 4.13h2.06v2.06h-2.06zm17.53-2.06h-2.06v2.06h2.06zm-4.13 0h-2.06v2.06h2.06z"/>
	</g>
</svg>