<svg version="1.2" xmlns="http://www.w3.org/2000/svg" viewBox="0 0 33 33" width="33" height="33">
	<style>
		.s0 { fill: #111918 } 
	</style>
	<path class="s0" d="m29.3 24.75l-3.09-3.09 2.36-2.37-1.46-1.46-2.3 2.31-3.7-4.32 4.67-4v-5.63h-5.63l-3.65 4.26-3.65-4.26h-5.63v5.63l4.67 4-3.7 4.32-2.3-2.31-1.46 1.46 2.36 2.37-3.09 3.09 3.52 3.52 3.09-3.09 2.37 2.36 1.46-1.46-2.31-2.3 4.67-4.01 4.67 4.01-2.31 2.3 1.46 1.46 2.37-2.36 3.09 3.09zm-22.69 0l1.64-1.63 0.6 0.6-1.63 1.63zm2.66-13.88v-2.61h2.62l3.25 3.78-1.91 2.22zm11.82-2.62h2.62v2.62l-13.36 11.45-0.71-0.71zm-1.56 8.91l3.81 4.44-0.71 0.71-4.55-3.9zm6.24 8.19l-1.64-1.64 0.61-0.6 1.63 1.64z"/>
</svg>